<?xml version="1.0" encoding="UTF-8" standalone="no"?>
<!DOCTYPE svg PUBLIC "-//W3C//DTD SVG 1.1//EN" "http://www.w3.org/Graphics/SVG/1.1/DTD/svg11.dtd">
<svg width="100%" height="100%" viewBox="0 0 130 129" version="1.1" xmlns="http://www.w3.org/2000/svg" xmlns:xlink="http://www.w3.org/1999/xlink" xml:space="preserve" xmlns:serif="http://www.serif.com/" style="fill-rule:evenodd;clip-rule:evenodd;stroke-linejoin:round;stroke-miterlimit:2;">
    <g transform="matrix(1.025926,0,0,1.025926,-5.803874,-3.317733)">
        <path d="M6.041,58.46C21.414,-17.402 110.726,-9.274 128.55,47.484C150.353,116.916 52.829,161.184 14.997,99.194C2.852,79.293 6.028,61.082 6.041,58.46Z" style="fill:rgb(12,13,72);fill-opacity:0.97;"/>
        <path d="M73.54,124.967C-24.518,125.395 -0.053,-9.629 81.559,8.237C138.5,20.701 150.756,112.505 73.54,124.967Z" style="fill:rgb(247,249,250);"/>
        <path d="M66.627,30.918C69.203,30.883 69.013,30.804 69.203,30.883C70.532,31.434 68.883,31.243 68.009,32.228C67.808,32.404 62.409,35.138 59.825,42.613C59.041,44.882 59.737,46.541 57.523,45.459C56.678,45.046 50.275,41.918 45.782,44.958C30.804,55.09 64.034,57.725 68.02,67.697C75.05,85.283 37.347,95.076 23.668,85.303C21.747,83.931 31.971,75.141 32.452,75.581C33.849,76.863 46.05,88.053 55.434,81.397C72.646,69.188 36.455,68.377 34.163,55.537C31.868,42.677 63.539,31.962 66.627,30.918Z" style="fill:rgb(6,12,91);"/>
        <path d="M107.48,63.501C92.55,38.535 92.853,35.56 91.702,37.689C90.804,39.35 85.102,49.896 82.779,59.534C82.133,62.216 98.569,62.163 106.5,64.508C108.291,69.157 105.545,68.359 100.547,68.905C82.7,70.854 76.77,66.084 72.826,83.572C71.252,90.555 68.581,87.652 61.529,89.192C58.168,89.926 62.252,86.584 62.431,86.437C67.817,82.03 67.022,81.347 90.778,25.657C92.161,22.415 93.086,26.384 111.178,64.711C111.668,65.957 112.158,67.203 112.648,68.449C117.166,77.702 117.248,77.638 117.623,78.449C133.439,112.727 112.149,72.961 111.858,72.356C109.406,67.948 110.265,67.669 107.48,63.501Z" style="fill:rgb(9,13,87);"/>
        <path d="M114.103,93.92C114.226,94.425 114.35,94.929 114.474,95.434C90.601,94.775 91.086,97.844 68.494,105.483C43.584,113.906 24.719,96.021 32.493,98.87C65.168,110.849 65.767,89.039 114.103,93.92Z" style="fill:rgb(11,14,87);"/>
        <path d="M23.693,91.378C24.552,89.938 24.423,89.901 24.552,89.938C69.493,102.727 85.763,77.085 117.252,88.919C118.767,89.488 118.224,91.97 115.499,91.603C65.53,84.868 48.537,109.423 23.693,91.378Z" style="fill:rgb(9,12,76);"/>
        <path d="M107.48,63.501L106.5,64.508C98.569,62.163 82.133,62.216 82.779,59.534C85.102,49.896 90.804,39.35 91.702,37.689C92.853,35.56 92.55,38.535 107.48,63.501Z" style="fill:rgb(248,250,250);"/>
        <path d="M67.447,113.037C48.989,114.597 48.294,110.165 49.703,109.862C49.927,109.813 61.57,111.711 71.366,108.122C104.27,96.066 106.352,95.618 106.556,98.528C106.678,100.283 104.789,97.787 86.401,107.313C77.44,111.956 77.421,111.827 67.447,113.037Z" style="fill:rgb(15,17,78);"/>
        <path d="M64.51,21.48L64.449,24.063C35.063,30.329 30.775,43.94 26.357,62.48C26.405,63.155 26.454,63.83 26.502,64.505L25.447,64.395C24.832,63.757 24.216,63.12 23.601,62.483C24.243,57.894 29.1,23.231 64.51,21.48Z" style="fill:rgb(14,14,62);"/>
        <path d="M18.459,65.086C22.702,66.65 46.473,65.733 53.354,71.632C59.438,76.848 26.897,66.725 26.504,70.499C26.462,70.901 27.235,70.72 27.29,75.486C27.413,86.308 23.379,69.409 23.234,68.8C23.055,68.051 22.578,69.029 13.759,67.08C10.114,66.274 18.055,65.144 18.459,65.086Z" style="fill:rgb(18,19,72);"/>
        <path d="M65.67,28.43C67.062,28.57 66.926,28.556 68.106,28.107C69.204,28.223 70.303,28.338 71.401,28.454C71.609,31.087 71.849,30.944 70.747,33.59C66.22,40.402 61.688,44.28 66.293,57.527C66.973,67.867 55.794,47.493 65.71,36.725C67.527,34.751 67.619,34.847 68.009,32.228C68.883,31.243 70.532,31.434 69.203,30.883C69.013,30.804 69.203,30.883 66.627,30.918L65.67,28.43Z" style="fill:rgb(49,50,88);"/>
        <path d="M110.787,50.395C110.935,50.924 119.42,81.336 109.954,57.216C105.054,44.73 104.866,44.761 104.913,43.601C105.086,39.321 110.458,49.756 110.787,50.395Z" style="fill:rgb(11,12,56);"/>
        <path d="M72.429,21.326C89.057,23.014 87.802,27.684 86.573,27.897C85.433,28.093 85.563,27.579 72.624,24.096C72.225,23.988 72.396,23.927 72.429,21.326Z" style="fill:rgb(16,15,62);"/>
        <path d="M67.591,12.571L68.5,12.449C69.056,15.537 69.611,18.624 70.167,21.712L69.917,22.485C68.284,25.043 68.34,24.996 68.106,28.107C66.926,28.556 67.062,28.57 65.67,28.43C65.776,27.083 65.882,25.737 65.988,24.39C66.202,23.444 66.415,22.498 66.629,21.552L67.591,12.571Z" style="fill:rgb(39,42,75);"/>
        <path d="M73.014,49.482C73.842,49.489 74.67,49.497 75.497,49.505C78.214,53.069 71.767,61.916 71.372,62.146C63.553,66.701 74.769,58.485 73.014,49.482Z" style="fill:rgb(30,33,68);"/>
        <path d="M72.848,35.121C74.086,42.408 74.272,42.125 75.497,49.505C74.67,49.497 73.842,49.489 73.014,49.482C71.466,39.327 68.86,38.422 72.848,35.121Z" style="fill:rgb(89,92,106);"/>
        <path d="M109.542,74.541C116.658,79.381 105.677,88.044 107.201,82.439C107.373,81.803 107.374,81.854 109.542,74.541Z" style="fill:rgb(15,14,64);"/>
        <path d="M68.485,42.524C69.08,52.445 69.974,52.541 68.322,56.221C66.635,52.69 65.824,51.664 67.527,43.539L68.485,42.524Z" style="fill:rgb(94,95,115);"/>
        <path d="M113.631,64.835C121.153,65.093 121.105,65.089 121.755,65.113C133.214,65.546 115.116,67.174 114.515,67.228C113.801,66.042 113.764,66.258 113.631,64.835Z" style="fill:rgb(55,57,70);"/>
        <path d="M26.357,62.48C27.779,62.603 36.448,61.202 34.584,63.562C34.017,64.28 33.991,63.968 26.502,64.505C26.454,63.83 26.405,63.155 26.357,62.48Z" style="fill:rgb(109,112,120);"/>
        <path d="M69.917,22.485C71.035,25.951 71.362,25.804 71.401,28.454C70.303,28.338 69.204,28.223 68.106,28.107C68.34,24.996 68.284,25.043 69.917,22.485Z" style="fill:rgb(94,98,126);"/>
        <path d="M67.383,114.472L68.297,114.745L69.353,115.535C69.129,120.136 67.866,119.58 67.581,119.396C67.019,119.034 67.269,118.958 67.383,114.472Z" style="fill:rgb(101,101,101);"/>
        <path d="M103.355,30.396C100.037,31.959 100.779,29.816 100.862,29.624C101.508,28.14 105.99,26.061 103.355,30.396Z" style="fill:rgb(91,89,98);"/>
        <path d="M35.169,28.864C37.292,34.627 31.842,29.699 32.396,28.479C32.488,28.275 32.396,28.479 35.169,28.864Z" style="fill:rgb(85,87,92);"/>
        <path d="M111.178,64.711C111.996,64.752 112.813,64.793 113.631,64.835C113.764,66.258 113.801,66.042 114.515,67.228L112.648,68.449C112.158,67.203 111.668,65.957 111.178,64.711Z" style="fill:rgb(175,174,204);"/>
        <path d="M64.51,21.48C65.216,21.504 65.923,21.528 66.629,21.552C66.415,22.498 66.202,23.444 65.988,24.39L64.449,24.063L64.51,21.48Z" style="fill:rgb(188,192,224);"/>
        <path d="M23.601,62.483C24.216,63.12 24.832,63.757 25.447,64.395C24.632,64.049 23.816,63.703 23.001,63.358L23.601,62.483Z" style="fill:rgb(143,147,175);"/>
        <path d="M114.103,93.92C114.825,94.706 115.091,94.654 114.474,95.434C114.35,94.929 114.226,94.425 114.103,93.92Z" style="fill:rgb(184,183,188);"/>
        <path d="M68.485,42.524L67.527,43.539C67.872,42.713 67.757,42.802 68.485,42.524Z" style="fill:rgb(186,191,201);"/>
    </g>
</svg>
